<?xml version="1.0" encoding="utf-8"?>
<!-- Generator: Adobe Illustrator 24.0.0, SVG Export Plug-In . SVG Version: 6.00 Build 0)  -->
<svg version="1.1" id="Layer_1" xmlns="http://www.w3.org/2000/svg" xmlns:xlink="http://www.w3.org/1999/xlink" x="0px" y="0px"
	 width="675px" height="699.8px" viewBox="0 0 675 699.8" style="enable-background:new 0 0 675 699.8;" xml:space="preserve">
<g>
	<g>
		<path d="M112.1,283.2c-5.3,3-11.3,3.4-18,1.4l-43.3-13.2c-6.7-2-11.4-5.8-14.2-11.2c-2.8-5.4-3.1-11.6-1-18.6
			c2.1-6.9,5.9-11.9,11.2-15s11.4-3.5,18.2-1.5l4.8,1.5c0.4,0.1,0.7,0.4,0.9,0.7c0.2,0.4,0.2,0.8,0.1,1.2l-3.4,11.3
			c-0.1,0.4-0.4,0.7-0.7,0.9c-0.4,0.2-0.8,0.2-1.2,0.1l-5-1.5c-2.9-0.9-5.6-0.8-7.9,0.3c-2.3,1.1-3.9,3-4.7,5.7
			c-0.8,2.7-0.6,5.1,0.7,7.3c1.3,2.2,3.4,3.7,6.4,4.6l43.6,13.3c2.9,0.9,5.6,0.8,7.8-0.3c2.3-1.1,3.9-3,4.7-5.7
			c0.8-2.7,0.6-5.1-0.7-7.4c-1.3-2.2-3.4-3.8-6.3-4.7L92.2,249c-0.4-0.1-0.7,0-0.8,0.4l-2.3,7.5c-0.1,0.4-0.4,0.7-0.7,0.9
			c-0.4,0.2-0.8,0.2-1.2,0.1l-8.9-2.7c-0.4-0.1-0.7-0.4-0.9-0.7c-0.2-0.4-0.2-0.8-0.1-1.2l6.4-20.8c0.1-0.4,0.4-0.7,0.7-0.9
			c0.4-0.2,0.8-0.2,1.2-0.1l22.6,6.9c6.7,2,11.4,5.8,14.1,11.3c2.7,5.5,3,11.7,0.9,18.7C121.1,275.3,117.4,280.3,112.1,283.2z"/>
		<path d="M102.6,142.2c0.1,0.4,0,0.8-0.3,1.1L86.5,166c-0.2,0.4-0.2,0.6,0.2,0.9l19.9,13.8c0.4,0.2,0.6,0.2,0.9-0.2l9.4-13.4
			c0.2-0.3,0.6-0.6,1-0.6c0.4-0.1,0.8,0,1.1,0.3l8.1,5.6c0.4,0.2,0.6,0.6,0.6,1c0.1,0.4,0,0.8-0.3,1.1l-9.4,13.4
			c-0.2,0.4-0.2,0.6,0.2,0.9l20,13.9c0.4,0.2,0.6,0.2,0.9-0.2l15.8-22.7c0.2-0.3,0.6-0.6,1-0.6c0.4-0.1,0.8,0,1.1,0.3l8,5.6
			c0.4,0.2,0.6,0.6,0.6,1c0.1,0.4,0,0.8-0.3,1.1l-23.8,34.1c-0.2,0.4-0.6,0.6-1,0.6c-0.4,0.1-0.8,0-1.1-0.3l-71-49.4
			c-0.3-0.2-0.6-0.6-0.6-1c-0.1-0.4,0-0.8,0.3-1.1L91.8,136c0.2-0.3,0.6-0.6,1-0.6c0.4-0.1,0.8,0,1.1,0.3l8,5.6
			C102.3,141.4,102.5,141.8,102.6,142.2z"/>
		<path d="M183.4,161.2c-6.3-0.8-11.6-4.1-16.1-10l-26.1-34.2c-4.5-5.8-6.3-11.9-5.4-18.1c0.9-6.2,4.2-11.6,10-16.1
			c5.8-4.5,11.9-6.3,18.2-5.5c6.3,0.8,11.7,4.1,16.1,9.9l26.1,34.2c4.5,5.8,6.2,11.9,5.3,18.2c-0.9,6.3-4.3,11.6-10.1,16.1
			C195.7,160.2,189.7,162,183.4,161.2z M197.6,138.9c0.2-2.7-0.7-5.3-2.6-7.9L168,95.9c-2-2.6-4.3-4.1-6.9-4.6
			c-2.6-0.5-5.1,0.1-7.4,1.9c-2.3,1.8-3.5,4-3.7,6.6c-0.2,2.7,0.7,5.3,2.7,7.8l26.9,35.2c2,2.6,4.3,4.1,6.9,4.7
			c2.6,0.5,5.1-0.1,7.4-1.8C196.1,143.8,197.4,141.6,197.6,138.9z"/>
		<path d="M245.5,121.8c-5.5-2.6-9.4-7.1-11.7-13.7l-14.8-42.8c-2.3-6.6-2-12.6,0.7-18.1c2.8-5.4,7.6-9.3,14.4-11.7
			c6.9-2.4,13.1-2.3,18.7,0.2c5.6,2.5,9.6,7.1,11.9,13.8l1.6,4.7c0.1,0.4,0.1,0.8-0.1,1.2c-0.2,0.4-0.5,0.6-0.9,0.8l-11.1,3.9
			c-0.4,0.1-0.8,0.1-1.2-0.1c-0.4-0.2-0.6-0.5-0.8-0.9l-1.7-5c-1-2.9-2.6-5-4.9-6.2c-2.3-1.2-4.7-1.3-7.4-0.4
			c-2.7,0.9-4.5,2.5-5.5,4.9c-1,2.3-1,5,0,7.9l14.9,43.1c1,2.9,2.6,5,4.8,6.2c2.2,1.2,4.7,1.4,7.3,0.4c2.7-0.9,4.5-2.6,5.5-4.9
			c1-2.3,1.1-5,0.1-7.9l-4-11.6c-0.1-0.4-0.4-0.5-0.8-0.4l-7.4,2.6c-0.4,0.1-0.8,0.1-1.2-0.1c-0.4-0.2-0.6-0.5-0.8-0.9l-3.1-8.8
			c-0.1-0.4-0.1-0.8,0.1-1.2c0.2-0.4,0.5-0.6,0.9-0.8l20.6-7.1c0.4-0.1,0.8-0.1,1.2,0.1c0.4,0.2,0.6,0.5,0.8,0.9l7.7,22.4
			c2.3,6.6,2,12.6-0.8,18.1s-7.7,9.4-14.6,11.7C257.2,124.5,251,124.4,245.5,121.8z"/>
		<path d="M344.8,107.3l-11.5-36.5c-0.2-0.3-0.4-0.5-0.6-0.5l-6.8,0.1c-0.4,0-0.6,0.2-0.6,0.7l0.6,36.3c0,0.4-0.1,0.8-0.4,1.1
			c-0.3,0.3-0.7,0.5-1.1,0.5l-11.8,0.2c-0.4,0-0.8-0.1-1.1-0.4c-0.3-0.3-0.5-0.7-0.5-1.1l-1.5-86.5c0-0.4,0.1-0.8,0.4-1.1
			c0.3-0.3,0.7-0.5,1.1-0.5l24.1-0.4c4.5-0.1,8.5,0.9,12,3.1c3.5,2.1,6.2,5.1,8.2,9.1c2,3.9,3,8.5,3.1,13.6
			c0.1,5.3-0.9,9.9-2.8,13.7c-2,3.9-4.8,6.8-8.4,8.8c-0.3,0.1-0.5,0.4-0.4,0.8l13.2,38.3c0.1,0.2,0.1,0.4,0.1,0.6
			c0,0.8-0.5,1.2-1.4,1.2l-12.3,0.2C345.6,108.6,345.1,108.2,344.8,107.3z M324.6,32.8l0.4,25.5c0,0.4,0.2,0.6,0.7,0.6l7.8-0.1
			c3.1-0.1,5.5-1.3,7.4-3.7c1.9-2.4,2.8-5.7,2.7-9.8s-1.1-7.3-3-9.7s-4.5-3.6-7.5-3.5l-7.8,0.1C324.8,32.2,324.6,32.4,324.6,32.8z"
			/>
		<path d="M417.1,121.4l1.7-13.6c0.1-0.4-0.1-0.7-0.5-0.8l-17.8-5.6c-0.5-0.2-0.8,0-0.9,0.4l-6.3,12.1c-0.4,0.9-1,1.2-2,0.8
			l-11.1-3.5c-1.1-0.4-1.4-1-0.8-2l43.9-76.9c0.4-0.8,1.1-1.1,2-0.8l12.9,4.1c0.9,0.3,1.3,0.9,1.2,1.8l-7.8,88.2l-0.2,0.5
			c-0.2,0.7-0.8,1-1.7,0.7l-11.4-3.6C417.2,122.9,416.8,122.3,417.1,121.4z M405.9,90.9l13.6,4.2c0.5,0.2,0.8,0,0.8-0.4l5-40.8
			c0-0.3-0.1-0.4-0.3-0.5c-0.2-0.1-0.3,0-0.5,0.3l-19,36.4C405.3,90.5,405.4,90.8,405.9,90.9z"/>
		<path d="M530.3,88.7c1.5,3.8,1.9,7.9,1.1,12.3c-0.8,4.4-2.6,8.7-5.6,12.8c-4.5,6.3-9.7,10.1-15.7,11.6c-6,1.5-11.7,0.3-17.2-3.6
			l-8.9-6.3c-0.3-0.2-0.6-0.2-0.9,0.1l-20.6,29c-0.2,0.3-0.6,0.6-1,0.6c-0.4,0.1-0.8,0-1.1-0.3l-9.6-6.8c-0.3-0.2-0.6-0.6-0.6-1
			c-0.1-0.4,0-0.8,0.3-1.1l50.3-70.6c0.2-0.3,0.6-0.6,1-0.6c0.4-0.1,0.8,0,1.1,0.3l19.6,14C526.1,81.7,528.7,84.9,530.3,88.7z
			 M505.4,112c3-0.9,5.7-3,8.1-6.4c2.5-3.5,3.7-6.8,3.6-10c-0.1-3.2-1.4-5.7-4-7.5l-6.3-4.5c-0.3-0.2-0.6-0.2-0.9,0.2l-15.2,21.4
			c-0.2,0.3-0.2,0.6,0.2,0.9l6.3,4.5C499.7,112.4,502.4,112.8,505.4,112z"/>
		<path d="M596.3,155.4c0.4,0.1,0.8,0.3,1,0.6l7,9.5c0.3,0.3,0.3,0.7,0.3,1.1c-0.1,0.4-0.3,0.8-0.6,1l-69.7,51.2
			c-0.3,0.3-0.7,0.3-1.1,0.3c-0.4-0.1-0.8-0.3-1-0.6l-7-9.5c-0.3-0.3-0.3-0.7-0.3-1.1c0.1-0.4,0.3-0.8,0.6-1l29.2-21.4
			c0.3-0.3,0.4-0.6,0.1-0.9l-9.6-13.1c-0.3-0.3-0.6-0.4-0.9-0.1L515,192.7c-0.3,0.3-0.7,0.3-1.1,0.3c-0.4-0.1-0.8-0.3-1-0.6l-7-9.5
			c-0.3-0.3-0.3-0.7-0.3-1.1c0.1-0.4,0.3-0.8,0.6-1l69.7-51.2c0.3-0.3,0.7-0.3,1.1-0.3c0.4,0.1,0.8,0.3,1,0.6l7,9.5
			c0.3,0.3,0.3,0.7,0.3,1.1c-0.1,0.4-0.3,0.8-0.6,1l-29.1,21.4c-0.3,0.3-0.4,0.5-0.1,0.9l9.6,13.1c0.3,0.3,0.5,0.4,0.9,0.1
			l29.1-21.4C595.5,155.4,595.8,155.3,596.3,155.4z"/>
		<path d="M550,257.6c0.2-0.4,0.5-0.6,0.9-0.8l33.2-10.8l0.7-0.4l42.5-32.5c0.1-0.1,0.3-0.2,0.6-0.3c0.7-0.2,1.2,0.1,1.5,1l3.8,11.7
			c0.3,0.9,0.1,1.6-0.7,2.1L604.2,247c-0.2,0.2-0.3,0.3-0.2,0.5c0.1,0.2,0.2,0.2,0.5,0.2l34.3-1c0.9,0,1.5,0.4,1.8,1.3l3.8,11.7
			c0.2,0.5,0.1,0.9-0.1,1.2c-0.2,0.3-0.6,0.5-1.2,0.5l-53.5-1.4l-0.8,0.1L555.5,271c-0.4,0.1-0.8,0.1-1.2-0.1
			c-0.4-0.2-0.6-0.5-0.8-0.9l-3.6-11.2C549.8,258.4,549.8,258,550,257.6z"/>
	</g>
	<g>
		<path d="M74,538c0.2-5.5,2.7-10.4,7.6-14.5l19.5-16.8c4.8-4.1,10-5.9,15.5-5.2c5.5,0.6,10.6,3.6,15.2,8.9
			c4.6,5.4,6.8,10.8,6.6,16.4c-0.2,5.6-2.7,10.4-7.5,14.5l-19.5,16.8c-4.9,4.2-10,5.9-15.5,5.3c-5.5-0.6-10.6-3.7-15.2-9.1
			C76,548.9,73.8,543.5,74,538z M96.1,548.7c2.2,0,4.4-0.8,6.5-2.6l17.9-15.4c2-1.7,3.2-3.7,3.5-6c0.3-2.2-0.3-4.3-1.9-6.1
			c-1.6-1.8-3.4-2.7-5.6-2.7c-2.2,0-4.3,0.9-6.4,2.6l-17.9,15.4c-2.1,1.8-3.3,3.8-3.6,5.9c-0.3,2.2,0.3,4.2,1.9,6
			C92,547.7,93.9,548.6,96.1,548.7z"/>
		<path d="M222.3,587.8c0.4,4.8-1.1,10.2-4.7,16.1l-22.2,36.7c-0.2,0.4-0.5,0.6-0.9,0.7c-0.4,0.1-0.8,0-1.2-0.2l-10-6
			c-0.4-0.2-0.6-0.5-0.7-0.9c-0.1-0.4,0-0.8,0.2-1.2l21.7-35.8c1.7-2.8,2.4-5.3,2.3-7.5c-0.2-2.2-1.2-3.9-3.1-5
			c-2-1.2-4.1-1.4-6.2-0.6c-2.1,0.8-4,2.6-5.6,5.3l-21.8,35.9c-0.2,0.4-0.5,0.6-0.9,0.7c-0.4,0.1-0.8,0-1.2-0.2l-10-6
			c-0.4-0.2-0.6-0.5-0.7-0.9c-0.1-0.4,0-0.8,0.2-1.2l21.7-35.8c1.7-2.8,2.4-5.3,2.2-7.5c-0.2-2.2-1.2-3.9-3-5
			c-2-1.2-4.1-1.4-6.2-0.6c-2.1,0.8-4,2.6-5.6,5.3l-21.8,35.9c-0.2,0.4-0.5,0.6-0.9,0.7c-0.4,0.1-0.8,0-1.2-0.2l-10-6
			c-0.4-0.2-0.6-0.5-0.7-0.9c-0.1-0.4,0-0.8,0.2-1.2l32.3-53.3c0.2-0.4,0.5-0.6,0.9-0.7c0.4-0.1,0.8,0,1.2,0.2l10,6
			c0.4,0.2,0.6,0.5,0.7,0.9c0.1,0.4,0,0.8-0.2,1.2l-1.1,1.8c-0.1,0.2-0.1,0.4,0,0.6c0.1,0.2,0.3,0.2,0.6,0c2.3-0.6,4.6-0.6,6.8-0.2
			c2.2,0.4,4.2,1.2,6,2.3c5.4,3.3,8,8,7.8,14.1c0,0.4,0.4,0.5,1.2,0.3c2.9-1.5,5.7-2,8.6-1.7c2.8,0.3,5.4,1.2,7.7,2.5
			C219.3,579.2,221.9,583,222.3,587.8z"/>
		<path d="M289.5,640.7c-0.4,0.2-0.7,0.3-1.2,0.2l-27.6-6.4c-0.4-0.1-0.7,0.1-0.8,0.5l-1.3,5.6c-0.6,2.6-0.4,4.9,0.7,6.8
			c1,2,2.7,3.2,4.9,3.8c1.9,0.4,3.7,0.2,5.3-0.7c1.6-0.9,2.9-2.2,3.8-4.1c0.4-0.8,1.1-1.1,1.9-0.9l11,3.1c0.4,0.1,0.7,0.3,1,0.7
			c0.2,0.4,0.2,0.8,0,1.3c-1.9,5.7-5.1,9.7-9.5,11.9c-4.4,2.3-9.9,2.7-16.4,1.1c-6.8-1.6-11.8-4.6-14.9-9.1c-3.1-4.5-4-9.9-2.5-16.1
			l5.8-25.3c1.4-6.1,4.5-10.5,9.3-13.3c4.8-2.8,10.6-3.4,17.4-1.8c6.8,1.6,11.8,4.7,14.9,9.3c3.1,4.6,3.9,10,2.5,16l-3.8,16.5
			C290.1,640.2,289.8,640.5,289.5,640.7z M267.6,611.7c-1.8,1.3-3,3.3-3.6,5.9l-1.3,5.6c-0.1,0.4,0.1,0.7,0.5,0.8l14.1,3.3
			c0.4,0.1,0.7-0.1,0.8-0.5l1.3-5.6c0.6-2.7,0.4-5-0.6-6.9c-1-1.9-2.7-3.2-5.1-3.7C271.4,609.9,269.4,610.4,267.6,611.7z"/>
		<path d="M324.7,670.7c-0.3-0.3-0.4-0.7-0.4-1.1l1.5-86.5c0-0.4,0.2-0.8,0.5-1.1c0.3-0.3,0.7-0.4,1.1-0.4l11.8,0.2
			c0.4,0,0.8,0.2,1.1,0.5c0.3,0.3,0.4,0.7,0.4,1.1l-1.5,86.5c0,0.4-0.2,0.8-0.5,1.1c-0.3,0.3-0.7,0.4-1.1,0.4l-11.8-0.2
			C325.4,671.1,325,671,324.7,670.7z"/>
		<path d="M418.9,633.6c-0.2,0.4-0.6,0.6-1,0.6l-27.8,5.4c-0.4,0.1-0.6,0.3-0.5,0.8l1.1,5.7c0.5,2.6,1.6,4.6,3.4,6
			c1.7,1.4,3.8,1.9,6,1.4c1.9-0.4,3.5-1.3,4.6-2.8c1.1-1.5,1.7-3.2,1.8-5.2c0.1-0.9,0.6-1.4,1.4-1.6l11.3-1.7c0.4-0.1,0.8,0,1.2,0.2
			c0.3,0.2,0.5,0.6,0.5,1.1c0.6,6-0.7,10.9-3.8,14.8c-3.1,3.9-7.9,6.4-14.5,7.7c-6.9,1.3-12.6,0.6-17.3-2.3
			c-4.7-2.9-7.6-7.4-8.9-13.7l-4.9-25.5c-1.2-6.1-0.2-11.4,3.1-15.9c3.3-4.5,8.3-7.4,15.2-8.7c6.9-1.3,12.7-0.5,17.4,2.4
			c4.7,3,7.6,7.5,8.8,13.6l3.2,16.6C419.2,632.9,419.1,633.3,418.9,633.6z M387.1,616c-1.1,2-1.4,4.2-0.9,6.8l1.1,5.7
			c0.1,0.4,0.3,0.6,0.8,0.5l14.2-2.8c0.4-0.1,0.6-0.3,0.5-0.8l-1.1-5.7c-0.5-2.7-1.7-4.7-3.4-6.1c-1.7-1.4-3.8-1.8-6.1-1.4
			C389.9,612.8,388.2,614,387.1,616z"/>
		<path d="M466.2,585.4c-0.2,0.4-0.4,0.7-0.8,0.9l-7.2,3.2c-0.4,0.2-0.5,0.5-0.3,0.8l13.7,30.6c1.2,2.7,2.6,4.4,4.1,5
			c1.5,0.6,3.2,0.4,5.2-0.6l0.8-0.4c0.4-0.2,0.8-0.2,1.2,0c0.4,0.2,0.7,0.4,0.9,0.8l4,9c0.2,0.4,0.2,0.8,0,1.2
			c-0.2,0.4-0.4,0.7-0.8,0.9l-4,1.8c-5.3,2.4-9.7,3.2-13.3,2.4c-3.6-0.7-6.5-3.8-9-9.2l-16-35.6c-0.2-0.4-0.5-0.5-0.8-0.3l-4.1,1.8
			c-0.4,0.2-0.8,0.2-1.2,0c-0.4-0.1-0.7-0.4-0.9-0.8l-3-6.8c-0.2-0.4-0.2-0.8,0-1.2c0.1-0.4,0.4-0.7,0.8-0.9l4.1-1.8
			c0.4-0.2,0.5-0.5,0.3-0.8l-5.8-12.8c-0.2-0.4-0.2-0.8,0-1.2c0.2-0.4,0.4-0.7,0.8-0.9l10.3-4.6c0.4-0.2,0.8-0.2,1.2,0
			c0.4,0.2,0.7,0.4,0.9,0.8l5.8,12.8c0.2,0.4,0.5,0.5,0.8,0.3l7.2-3.2c0.4-0.2,0.8-0.2,1.2,0c0.4,0.2,0.7,0.4,0.9,0.8l3,6.8
			C466.4,584.6,466.4,585,466.2,585.4z"/>
		<path d="M512.8,555.4c-0.1,0.4-0.3,0.7-0.6,1l-6.5,4.6c-0.3,0.2-0.4,0.5-0.2,0.9l19.4,27.3c1.7,2.4,3.4,3.8,5,4.1
			c1.6,0.3,3.2-0.2,5-1.6l0.7-0.5c0.3-0.2,0.7-0.3,1.1-0.3c0.4,0.1,0.7,0.3,1,0.6l5.7,8c0.2,0.3,0.3,0.7,0.3,1.1
			c-0.1,0.4-0.3,0.7-0.6,1l-3.5,2.5c-4.7,3.4-8.9,5-12.5,5c-3.6,0-7.2-2.4-10.6-7.2l-22.6-31.8c-0.2-0.3-0.5-0.4-0.9-0.2l-3.7,2.6
			c-0.3,0.2-0.7,0.3-1.1,0.3c-0.4-0.1-0.7-0.3-1-0.6l-4.3-6.1c-0.2-0.3-0.3-0.7-0.3-1.1c0.1-0.4,0.3-0.7,0.6-1l3.7-2.6
			c0.3-0.2,0.4-0.5,0.2-0.9l-8.2-11.5c-0.2-0.3-0.3-0.7-0.3-1.1c0.1-0.4,0.3-0.7,0.6-1l9.2-6.5c0.3-0.2,0.7-0.3,1.1-0.3
			c0.4,0.1,0.7,0.3,1,0.6l8.2,11.5c0.2,0.3,0.5,0.4,0.9,0.2l6.5-4.6c0.3-0.2,0.7-0.3,1.1-0.3c0.4,0.1,0.7,0.3,1,0.6l4.3,6.1
			C512.8,554.6,512.9,554.9,512.8,555.4z"/>
		<path d="M584.3,522.3c0,0.4-0.1,0.8-0.4,1.1l-18.8,21.2c-0.3,0.3-0.3,0.6,0.1,0.9l4.3,3.8c2,1.8,4.1,2.7,6.3,2.7
			c2.2,0,4.1-0.8,5.7-2.5c1.3-1.5,2-3.1,2-5c0-1.9-0.6-3.6-1.8-5.2c-0.5-0.8-0.4-1.5,0.1-2.1l7.9-8.2c0.3-0.3,0.6-0.5,1.1-0.5
			c0.4,0,0.8,0.2,1.1,0.6c4.1,4.4,6.1,9.1,6,14c-0.1,4.9-2.4,9.9-6.8,15c-4.6,5.2-9.7,8.1-15.2,8.7c-5.5,0.6-10.6-1.3-15.4-5.5
			L541.1,544c-4.7-4.1-7.1-9-7.2-14.5c-0.2-5.5,2.1-10.9,6.7-16.2c4.6-5.2,9.7-8.1,15.3-8.6c5.5-0.5,10.6,1.3,15.3,5.4l12.6,11.2
			C584.1,521.6,584.3,521.9,584.3,522.3z M548.4,527.7c0.3,2.2,1.5,4.2,3.4,6l4.3,3.8c0.3,0.3,0.6,0.3,0.9-0.1l9.6-10.8
			c0.3-0.3,0.3-0.6-0.1-0.9l-4.3-3.8c-2-1.8-4.2-2.7-6.4-2.7c-2.2,0-4.1,0.9-5.7,2.7C548.7,523.5,548.1,525.5,548.4,527.7z"/>
	</g>
</g>
</svg>
